<svg width="28" height="28" viewBox="0 0 28 28" fill="none" xmlns="http://www.w3.org/2000/svg">
<path d="M22.6599 2.83565H5.29153C4.6092 2.83565 4.05093 3.33847 4.05093 3.95993V25.7338C4.05093 26.3552 4.45413 26.5134 4.95657 26.0784L13.4733 18.7225C13.6718 18.553 14.0005 18.553 14.199 18.7169L22.9886 26.0954C23.4911 26.5191 23.9005 26.3552 23.9005 25.7338V3.95993C23.9005 3.33847 23.3484 2.83565 22.6599 2.83565ZM22.0396 22.9993L15.4582 17.474C14.9992 17.0898 14.4223 16.8977 13.8392 16.8977C13.2438 16.8977 12.6545 17.0954 12.1954 17.4909L5.91183 22.9202V4.53055H22.0396V22.9993Z" fill="#FAFAFA"/>
<path fill-rule="evenodd" clip-rule="evenodd" d="M3.64581 3.94809C3.64581 3.0683 4.42121 2.43056 5.27539 2.43056H22.676C23.5377 2.43056 24.3055 3.0695 24.3055 3.94809V25.7453C24.3055 26.1168 24.1804 26.5293 23.792 26.6837C23.4258 26.8292 23.0451 26.6505 22.7584 26.409C22.7583 26.4089 22.7585 26.4091 22.7584 26.409L13.9554 19.025C13.9551 19.0248 13.9549 19.0246 13.9546 19.0244C13.898 18.9786 13.7771 18.9796 13.7218 19.0261C13.7216 19.0262 13.7215 19.0264 13.7213 19.0265L5.19081 26.3886C4.90806 26.6332 4.52903 26.8226 4.16046 26.6811C3.76705 26.5301 3.64581 26.1122 3.64581 25.7453V3.94809ZM5.27539 3.21463C4.76238 3.21463 4.41917 3.58361 4.41917 3.94809V25.7453C4.41917 25.8479 4.43427 25.9094 4.44659 25.9408C4.45146 25.9395 4.45709 25.9379 4.46354 25.9357C4.51207 25.9193 4.58891 25.8785 4.68881 25.7921L13.2217 18.428L13.2233 18.4266C13.5658 18.1344 14.1021 18.1353 14.4434 18.4168L14.4459 18.4188L23.2525 25.8058C23.3512 25.889 23.4274 25.9277 23.4756 25.9429C23.4859 25.9462 23.4942 25.9482 23.5006 25.9494C23.5139 25.9204 23.5322 25.8571 23.5322 25.7453V3.94809C23.5322 3.58241 23.1939 3.21463 22.676 3.21463H5.27539ZM23.5192 25.951C23.5192 25.9511 23.5188 25.9511 23.5182 25.9511ZM4.42174 25.9446C4.42175 25.9446 4.4221 25.9446 4.42279 25.9446ZM5.51016 4.12728H22.4412V23.8412L15.2149 17.7791C15.2148 17.779 15.215 17.7791 15.2149 17.7791C14.8296 17.457 14.3403 17.2918 13.839 17.2918C13.325 17.2918 12.8258 17.4624 12.4424 17.7924L5.51016 23.7775V4.12728ZM6.28352 4.91136V22.08L11.9418 17.1948C12.4782 16.733 13.1597 16.5077 13.839 16.5077C14.5058 16.5077 15.1725 16.7273 15.707 17.1742L15.7074 17.1746L21.6678 22.1747V4.91136H6.28352Z" fill="#FAFAFA"/>
</svg>
