<svg width="28" height="28" viewBox="0 0 28 28" fill="none" xmlns="http://www.w3.org/2000/svg">
<path fill-rule="evenodd" clip-rule="evenodd" d="M24.8439 24.6859L23.5859 19.9942C23.5137 19.7312 23.5498 19.4477 23.6735 19.2002C24.7717 16.9987 25.1378 14.3692 24.4624 11.6264C23.5446 7.91422 20.6471 4.93419 16.9452 3.94944C15.9347 3.6865 14.9397 3.5576 13.9755 3.5576C7.05649 3.5576 1.65325 10.0487 3.51963 17.2719C4.3858 20.6129 7.95359 24.0724 11.31 24.887C12.2174 25.1087 13.1094 25.2118 13.9755 25.2118C15.8368 25.2118 17.5794 24.7323 19.1107 23.9074C19.2808 23.8146 19.4716 23.763 19.6572 23.763C19.75 23.763 19.8428 23.7734 19.9356 23.7991L24.5036 25.0211C24.5294 25.0262 24.5552 25.0314 24.5758 25.0314C24.7511 25.0314 24.8903 24.8664 24.8439 24.6859ZM22.1423 20.3809L22.8538 23.0361L20.3223 22.3607C20.1057 22.304 19.884 22.273 19.6572 22.273C19.2241 22.273 18.7859 22.3865 18.394 22.5978C17.0174 23.3403 15.5326 23.7166 13.9755 23.7166C13.2073 23.7166 12.4288 23.6187 11.6606 23.4331C8.81976 22.7422 5.69021 19.69 4.9684 16.8956C4.21566 13.9774 4.80858 10.9819 6.59247 8.67728C8.37636 6.37265 11.0677 5.05277 13.9755 5.05277C14.8314 5.05277 15.7027 5.1662 16.5637 5.39821C19.7448 6.24376 22.2144 8.77008 23.0136 11.9873C23.5756 14.2558 23.3436 16.5192 22.3382 18.5351C22.0495 19.1125 21.9773 19.7673 22.1423 20.3809Z" fill="#FAFAFA"/>
<path fill-rule="evenodd" clip-rule="evenodd" d="M3.92147 17.168C2.12452 10.2132 7.32202 3.97267 13.9755 3.97267C14.9022 3.97267 15.8618 4.0965 16.8396 4.35083C20.3929 5.29648 23.1777 8.15952 24.0594 11.726C24.7108 14.3718 24.3569 16.9002 23.3023 19.0146C23.1374 19.3443 23.0839 19.7323 23.1853 20.1028C23.1854 20.1032 23.1855 20.1036 23.1856 20.1041L24.3799 24.5583L20.0467 23.3992C20.046 23.399 20.0453 23.3988 20.0446 23.3987C19.9106 23.3617 19.7804 23.348 19.6572 23.348C19.3968 23.348 19.1386 23.4196 18.9128 23.5425C17.4389 24.3364 15.7639 24.7968 13.9755 24.7968C13.1425 24.7968 12.2836 24.6976 11.4085 24.4838L11.4079 24.4837C9.81986 24.0982 8.15213 23.0766 6.77074 21.7297C5.38921 20.3826 4.33063 18.746 3.92147 17.168ZM13.9755 5.46784C11.1962 5.46784 8.62606 6.72816 6.92069 8.93134C5.21832 11.1306 4.64839 13.9931 5.37027 16.7918C5.70665 18.094 6.61783 19.4923 7.80983 20.6562C9.00139 21.8196 10.4307 22.7067 11.7584 23.0297C12.4969 23.2081 13.2426 23.3016 13.9755 23.3016C15.4634 23.3016 16.8806 22.9425 18.197 22.2325C18.647 21.9898 19.1526 21.858 19.6572 21.858C19.9222 21.858 20.1792 21.8942 20.4274 21.9592L20.4293 21.9596L22.267 22.45L21.7414 20.4887C21.5491 19.7734 21.6345 19.0144 21.9669 18.3495C22.9262 16.4258 23.15 14.2641 22.6108 12.0873C21.8477 9.0153 19.4903 6.60558 16.4571 5.79934L16.4557 5.79898C15.6298 5.57642 14.7948 5.46784 13.9755 5.46784Z" fill="#FAFAFA"/>
<path fill-rule="evenodd" clip-rule="evenodd" d="M13.9755 3.14255C6.791 3.14255 1.18203 9.88414 3.11777 17.3758C3.57482 19.1387 4.73327 20.9025 6.19122 22.324C7.64919 23.7456 9.44331 24.8609 11.2115 25.2902C12.1512 25.5198 13.0762 25.6269 13.9755 25.6269C15.9093 25.6269 17.7192 25.1285 19.3075 24.2728L19.3094 24.2718C19.4237 24.2094 19.5467 24.1781 19.6572 24.1781C19.7189 24.1781 19.7736 24.1849 19.8245 24.1991L24.4092 25.4254L24.4222 25.4281L24.4259 25.4288C24.4448 25.4327 24.5104 25.4464 24.5758 25.4464C25.0096 25.4464 25.3629 25.0378 25.2459 24.5826L23.9868 19.8867L23.9861 19.8843C23.9436 19.7293 23.9625 19.5503 24.0449 19.3855C25.1865 17.097 25.5645 14.3664 24.8653 11.5268C23.9116 7.66928 20.9018 4.57245 17.052 3.54833L17.0498 3.54776C16.0069 3.27641 14.9767 3.14255 13.9755 3.14255ZM13.9755 3.97267C7.32202 3.97267 2.12452 10.2132 3.92147 17.168C4.33063 18.746 5.38921 20.3826 6.77074 21.7297C8.15213 23.0766 9.81986 24.0982 11.4079 24.4837L11.4085 24.4838C12.2836 24.6976 13.1425 24.7968 13.9755 24.7968C15.7639 24.7968 17.4389 24.3364 18.9128 23.5425C19.1386 23.4196 19.3968 23.348 19.6572 23.348C19.7804 23.348 19.9106 23.3617 20.0446 23.3987L20.0467 23.3992L24.3799 24.5583L23.1856 20.1041L23.1853 20.1028C23.0839 19.7323 23.1374 19.3443 23.3023 19.0146C24.3569 16.9002 24.7108 14.3718 24.0594 11.726C23.1777 8.15952 20.3929 5.29648 16.8396 4.35083C15.8618 4.0965 14.9022 3.97267 13.9755 3.97267Z" fill="#FAFAFA"/>
</svg>
