<svg width="28" height="28" viewBox="0 0 28 28" fill="none" xmlns="http://www.w3.org/2000/svg">
<path fill-rule="evenodd" clip-rule="evenodd" d="M9.25186 4.87772C8.12547 4.87772 7.0148 5.1953 6.03091 5.79752C2.98579 7.66403 1.91415 11.8312 3.68287 15.0832C4.01382 15.6923 4.60653 16.4236 5.36758 17.216C6.1244 18.004 7.03029 18.8346 7.97046 19.6419C9.85059 21.2564 11.8512 22.7634 13.0334 23.6289L13.0337 23.6292C13.3169 23.837 13.6496 23.9458 13.9992 23.9458C14.3481 23.9458 14.6816 23.8374 14.971 23.6283C16.1532 22.7626 18.1533 21.2559 20.033 19.6419C20.9731 18.8346 21.879 18.004 22.6358 17.216C23.3969 16.4236 23.9895 15.6924 24.3205 15.0834C26.0845 11.8311 25.0126 7.66381 21.9674 5.7974C20.9836 5.19526 19.873 4.87772 18.7466 4.87772C17.059 4.87772 15.4705 5.55874 14.2763 6.7784L13.9992 7.06134L13.7222 6.7784C12.528 5.55874 10.9395 4.87772 9.25186 4.87772ZM5.62476 5.15165C6.72677 4.47713 7.97749 4.11765 9.25186 4.11765C11.0267 4.11765 12.6995 4.7868 13.9992 5.98181C15.299 4.7868 16.9718 4.11765 18.7466 4.11765C20.021 4.11765 21.2717 4.47713 22.3737 5.15165C25.7829 7.24115 26.9448 11.8563 24.9996 15.4422C24.6197 16.1414 23.9706 16.9314 23.195 17.7388C22.4153 18.5507 21.4895 19.3988 20.5387 20.2153C18.637 21.8483 16.6183 23.3686 15.4292 24.2393L15.4274 24.2406C15.0086 24.5436 14.5159 24.7059 13.9992 24.7059C13.483 24.7059 12.9892 24.5438 12.5739 24.2391C11.3847 23.3684 9.36628 21.8481 7.46467 20.2153C6.51388 19.3988 5.58815 18.5507 4.80837 17.7388C4.03287 16.9314 3.38396 16.1417 3.00402 15.4426M5.62476 5.15165C2.21557 7.24114 1.05367 11.8565 3.00402 15.4426L5.62476 5.15165ZM6.40714 6.37992C7.27274 5.85069 8.2528 5.56849 9.25186 5.56849C11.0044 5.56849 12.6258 6.40493 13.7169 7.83855L13.718 7.84001L13.9992 8.21322L14.2805 7.84002L14.2816 7.83855C15.3728 6.40477 16.9992 5.56849 18.7466 5.56849C19.7454 5.56849 20.7257 5.85054 21.587 6.38026C24.3538 8.07459 25.2808 11.8347 23.6908 14.756C23.3345 15.4106 22.6848 16.1748 21.9101 16.9593C21.1295 17.7498 20.199 18.5834 19.2586 19.3781C17.3775 20.9679 15.4397 22.4162 14.544 23.0735L14.5421 23.0749C14.2195 23.3086 13.7741 23.3086 13.4515 23.0749L13.4501 23.0739C12.554 22.4187 10.6162 20.9715 8.73499 19.3818C7.79459 18.587 6.86404 17.7531 6.08338 16.9619C5.30873 16.1769 4.65913 15.4119 4.30285 14.756M6.81332 7.02578C4.41424 8.49944 3.57105 11.805 4.98158 14.3964C5.28457 14.9543 5.8711 15.6572 6.63538 16.4317C7.39377 17.2003 8.3053 18.0178 9.23618 18.8045C11.0969 20.377 13.0177 21.8117 13.9079 22.4626C13.9588 22.4992 14.0341 22.4993 14.0852 22.4629C14.9758 21.8093 16.8966 20.3734 18.7574 18.8009C19.6883 18.0142 20.5999 17.1969 21.3583 16.4289C22.1226 15.6549 22.709 14.9532 23.012 14.3964C24.4227 11.8046 23.5789 8.49446 21.1804 7.02587L21.1797 7.02545C20.4373 6.56874 19.5975 6.32857 18.7466 6.32857C17.2573 6.32857 15.8535 7.03957 14.8982 8.29421C14.898 8.29446 14.8978 8.29471 14.8976 8.29495L13.9992 9.4872L13.1009 8.29495C13.1007 8.29469 13.1005 8.29442 13.1003 8.29415C12.1449 7.03938 10.7459 6.32857 9.25186 6.32857C8.4013 6.32857 7.56125 6.56859 6.81332 7.02578ZM6.40714 6.37992L6.40648 6.38033L6.40714 6.37992ZM6.40648 6.38033C3.64028 8.07923 2.71262 11.8343 4.30285 14.756L6.40648 6.38033Z" fill="#FAFAFA"/>
<path d="M13.9992 24.2941C13.5673 24.2941 13.1551 24.1591 12.8066 23.9036C10.4409 22.173 4.78671 17.8682 3.36826 15.2602C1.513 11.852 2.62714 7.47483 5.84686 5.50318C6.88738 4.86685 8.06533 4.5294 9.26291 4.5294C11.0544 4.5294 12.7379 5.2525 13.9992 6.53962C15.2606 5.2525 16.9441 4.5294 18.7356 4.5294C19.9332 4.5294 21.1111 4.86685 22.1516 5.50318C25.3714 7.47483 26.4855 11.852 24.6351 15.2602C23.2167 17.8682 17.5625 22.173 15.1968 23.9036C14.8434 24.1591 14.4312 24.2941 13.9992 24.2941ZM9.26291 5.9756C8.34019 5.9756 7.43219 6.23592 6.62725 6.72762C4.05049 8.3088 3.16703 11.8279 4.66401 14.5757C5.97938 16.9956 11.8986 21.4403 13.6802 22.7419C13.8667 22.8768 14.1269 22.8768 14.3134 22.7419C16.095 21.4355 22.0142 16.9908 23.3296 14.5757C24.8266 11.8279 23.9431 8.30398 21.3663 6.72762C20.5663 6.23592 19.6583 5.9756 18.7356 5.9756C17.1208 5.9756 15.6091 6.74691 14.5882 8.08705L13.9992 8.868L13.4103 8.08705C12.3894 6.74691 10.8826 5.9756 9.26291 5.9756Z" fill="#FAFAFA"/>
</svg>
