<svg width="15" height="5" viewBox="0 0 15 5" fill="none" xmlns="http://www.w3.org/2000/svg">
<path fill-rule="evenodd" clip-rule="evenodd" d="M1.52588e-05 2.46666C1.52588e-05 1.5646 0.731284 0.833328 1.63335 0.833328C2.53541 0.833328 3.26668 1.5646 3.26668 2.46666C3.26668 3.36873 2.53541 4.09999 1.63335 4.09999C0.731284 4.09999 1.52588e-05 3.36873 1.52588e-05 2.46666ZM5.71667 2.46666C5.71667 1.5646 6.44794 0.833328 7.35001 0.833328C8.25207 0.833328 8.98334 1.5646 8.98334 2.46666C8.98334 3.36873 8.25207 4.09999 7.35001 4.09999C6.44794 4.09999 5.71667 3.36873 5.71667 2.46666ZM14.2333 2.46666C14.2333 1.5646 13.5021 0.833328 12.6 0.833328C11.6979 0.833328 10.9667 1.5646 10.9667 2.46666C10.9667 3.36873 11.6979 4.09999 12.6 4.09999C13.5021 4.09999 14.2333 3.36873 14.2333 2.46666Z" fill="#FAFAFA"/>
</svg>
