<svg width="24" height="22" viewBox="0 0 24 22" fill="none" xmlns="http://www.w3.org/2000/svg">
<path fill-rule="evenodd" clip-rule="evenodd" d="M23.7563 1.62429C23.5097 1.19086 23.0456 0.940125 22.5581 0.940125L1.4508 0.95546C0.862971 0.955515 0.353348 1.31855 0.149619 1.85948L0.149426 1.86C0.00276253 2.2511 0.0356484 2.67777 0.237024 3.03018L0.239837 3.0351L0.242793 3.03994C0.31858 3.16395 0.414816 3.28077 0.531383 3.38362L8.56556 10.3119L10.5238 20.7138L10.5239 20.7145C10.6309 21.2908 11.0771 21.72 11.6554 21.8117C12.2278 21.9032 12.7912 21.6336 13.0854 21.1364L13.0858 21.1356L23.749 3.00929L23.5122 2.59784C23.5122 2.59767 23.5123 2.59751 23.5123 2.59734L23.7493 3.00882C24.0032 2.57809 24.0047 2.05175 23.7563 1.62429ZM22.7961 1.35343L22.5581 0.940125L22.7959 1.3534C22.796 1.35341 22.796 1.35342 22.7961 1.35343ZM9.77287 8.29352L3.92435 3.24492H18.6199L9.77287 8.29352ZM12.3392 17.8555L10.9136 10.2812L19.778 5.22583L12.3392 17.8555Z" fill="#FAFAFA"/>
</svg>
