<svg width="22" height="26" viewBox="0 0 22 26" fill="none" xmlns="http://www.w3.org/2000/svg">
<path fill-rule="evenodd" clip-rule="evenodd" d="M11.2696 2.79968C9.90483 2.79968 8.79844 3.90271 8.79844 5.26335V6.60509H6.74253V5.26335C6.74253 2.77071 8.76938 0.750031 11.2696 0.750031C13.7699 0.750031 15.7967 2.77071 15.7967 5.26336V6.60509H13.7408V5.26336C13.7408 3.90271 12.6344 2.79968 11.2696 2.79968ZM17.3512 8.65477H4.6487C3.92493 8.65477 3.32591 9.21581 3.28076 9.93597L2.7403 18.557C2.5677 21.3103 4.761 23.6378 7.52808 23.6378H14.4719C17.2389 23.6378 19.4322 21.3103 19.2596 18.557L18.7192 9.93597C18.674 9.21581 18.075 8.65477 17.3512 8.65477ZM4.6487 6.60512C2.83928 6.60512 1.34173 8.00772 1.22886 9.80811L0.688401 18.4291C0.441821 22.3624 3.57511 25.6875 7.52808 25.6875H14.4719C18.4248 25.6875 21.5581 22.3624 21.3115 18.4291L20.7711 9.80812C20.6582 8.00772 19.1606 6.60512 17.3512 6.60512H4.6487ZM13.7404 11.1669C13.7404 12.5276 12.6341 13.6306 11.2693 13.6306C9.90446 13.6306 8.79807 12.5276 8.79807 11.1669V10.8986C8.79807 10.3326 8.33784 9.87376 7.77012 9.87376C7.20239 9.87376 6.74216 10.3326 6.74216 10.8986V11.1669C6.74216 13.6596 8.76901 15.6803 11.2693 15.6803C13.7695 15.6803 15.7964 13.6596 15.7964 11.1669V10.8986C15.7964 10.3326 15.3361 9.87376 14.7684 9.87376C14.2007 9.87376 13.7404 10.3326 13.7404 10.8986V11.1669Z" fill="#FAFAFA"/>
</svg>
