<svg width="22" height="20" viewBox="0 0 22 20" fill="none" xmlns="http://www.w3.org/2000/svg">
<path fill-rule="evenodd" clip-rule="evenodd" d="M6.29545 1.59091C3.65477 1.59091 1.59091 3.65477 1.59091 6.29545C1.59091 7.92416 2.31622 9.46413 3.75493 11.2231C5.20277 12.9932 7.28879 14.8867 9.8798 17.2362L9.88094 17.2372L10.7975 18.0716L11.7105 17.2468L11.7116 17.2457C14.3023 14.8915 16.388 12.9958 17.8358 11.2245C19.2747 9.46417 20 7.92417 20 6.29545C20 3.65477 17.9361 1.59091 15.2955 1.59091C13.7963 1.59091 12.345 2.29268 11.4011 3.40118C11.2499 3.57866 11.0286 3.68091 10.7955 3.68091C10.5623 3.68091 10.341 3.57866 10.1898 3.40118C9.24587 2.29268 7.7946 1.59091 6.29545 1.59091ZM0 6.29545C0 2.77614 2.77614 0 6.29545 0C7.97581 0 9.58988 0.660775 10.7955 1.74732C12.001 0.660775 13.6151 0 15.2955 0C18.8148 0 21.5909 2.77614 21.5909 6.29545C21.5909 8.44674 20.6162 10.3367 19.0676 12.2314C17.5439 14.0955 15.3842 16.0581 12.8592 18.3526L12.7787 18.4257L11.3287 19.7357C11.025 20.0101 10.5626 20.0092 10.26 19.7337L8.80997 18.4137L8.75771 18.3663C6.22167 16.0666 4.05241 14.0996 2.52348 12.2303C0.974692 10.3368 0 8.44675 0 6.29545Z" fill="white"/>
</svg>
