<svg width="26" height="26" viewBox="0 0 26 26" fill="none" xmlns="http://www.w3.org/2000/svg">
<path fill-rule="evenodd" clip-rule="evenodd" d="M8.81486 2.85L11.919 6.73013L11.7631 6.81672H16.92L13.7467 2.85H8.81486ZM23.1499 6.81672H19.3465L19.5024 6.73014L16.3983 2.85H19.4166C21.4785 2.85 23.1499 4.52147 23.1499 6.58333V6.81672ZM9.33663 6.81672L6.18044 2.87148C4.30803 3.07237 2.84995 4.65758 2.84995 6.58333V6.81672H9.33663ZM2.84995 19.4167V8.91672H23.1499V19.4167C23.1499 21.4785 21.4785 23.15 19.4166 23.15H6.58328C4.52142 23.15 2.84995 21.4785 2.84995 19.4167ZM6.58328 0.75C3.36162 0.75 0.749947 3.36167 0.749947 6.58333V19.4167C0.749947 22.6383 3.36162 25.25 6.58328 25.25H19.4166C22.6383 25.25 25.2499 22.6383 25.2499 19.4167V6.58333C25.2499 3.36167 22.6383 0.75 19.4166 0.75H6.58328ZM16.7916 15.8385C17.1805 15.614 17.1805 15.0527 16.7916 14.8282L10.6666 11.2919C10.2777 11.0674 9.79157 11.348 9.79157 11.7971V18.8696C9.79157 19.3187 10.2777 19.5993 10.6666 19.3748L16.7916 15.8385Z" fill="#FAFAFA"/>
</svg>
